<svg xmlns="http://www.w3.org/2000/svg" width="180" height="36" viewBox="0 0 180 36">
    <path fill="#3857E0" d="M10.054 26.897v-9.2l5.366-.476v9.676h10.07V.705H15.42v9.02l-5.366.444V.705H0v26.192h10.054zm27.77.59c3.588-.01 6.265-1.338 8.033-3.984l2.311 3.394h5.302V6.511h-5.302l-2.311 2.51c-.334-.525-.728-.99-1.18-1.395-1.412-1.257-3.053-1.886-4.922-1.886-1.87 0-3.645.498-5.326 1.493-.82.48-1.563 1.071-2.23 1.771-1.402 1.422-2.382 3.176-2.943 5.265-.28 1.05-.42 2.29-.42 3.723 0 1.432.256 2.769.768 4.01.512 1.24 1.199 2.271 2.06 3.091.863.81 1.857 1.414 2.983 1.813 1.126.399 2.185.593 3.176.582zm3.984-7.174c-1.105.464-1.927.516-2.465.155-.582-.393-.873-1.071-.873-2.033 0-1.367.528-2.712 1.584-4.035.474-.59 1.01-1.08 1.608-1.468.598-.388 1.167-.582 1.705-.582.54 0 1.003.115 1.39.344V18.5c-.862.744-1.845 1.348-2.95 1.813zm25.126 6.584V14.17c0-1.41.431-2.115 1.293-2.115 1.897 0 2.845 1.667 2.845 5.002v9.84h9.666V12.99c0-2.21-.714-3.97-2.142-5.282-1.427-1.312-3.359-1.968-5.794-1.968-1.326 0-2.75.356-4.276 1.066-1.524.711-2.718 1.673-3.58 2.887L62.635 6.51h-5.302v20.386h9.601zM97.476 36c1.945 0 3.672-.268 5.18-.804 3.75-1.323 5.62-4.089 5.61-8.299V6.511h-5.286l-2.328 2.51c-.323-.525-.711-.99-1.164-1.395-1.38-1.257-3.014-1.886-4.906-1.886-1.89 0-3.674.498-5.35 1.493-1.675.995-3.009 2.386-4 4.174-.992 1.788-1.487 3.83-1.487 6.126 0 3.203.891 5.669 2.675 7.396 1.783 1.728 4.014 2.589 6.692 2.584 2.677-.006 4.96-1.053 6.845-3.141-.01 2.12-.458 3.63-1.342 4.526-.41.416-.875.695-1.398.837-.522.142-1.09.213-1.705.213-.614 0-1.247-.06-1.9-.18-.651-.12-1.252-.214-1.802-.28v5.807c1.832.47 3.72.705 5.666.705zM96.32 20.452c-.991.328-1.724.333-2.198.016-.56-.393-.84-1.071-.84-2.033 0-1.433.543-2.789 1.632-4.068.646-.809 1.38-1.394 2.198-1.755.399-.175.811-.262 1.237-.262.425 0 .832.115 1.22.344v5.839c-1.218.962-2.3 1.602-3.249 1.919zm26.476 7.052c2.048-.01 3.971-.464 5.77-1.36 1.8-.898 3.239-2.166 4.317-3.806 1.077-1.64 1.61-3.526 1.6-5.658-.011-3.324-1.132-5.978-3.362-7.963-2.23-1.984-4.984-2.977-8.26-2.977s-6.03 1.014-8.26 3.043c-2.23 2.028-3.346 4.636-3.346 7.823 0 3.187 1.191 5.83 3.573 7.93 2.23 1.979 4.886 2.968 7.968 2.968zm-1.131-6.626c-.345 0-.636-.054-.873-.164-.668-.306-1.002-.904-1.002-1.796 0-.89.285-1.867.857-2.927.57-1.06 1.276-1.963 2.117-2.706.399-.35.803-.626 1.212-.829.41-.202.784-.303 1.124-.303.34 0 .617.055.832.164.604.306.905.886.905 1.739 0 .852-.296 1.817-.889 2.894-.592 1.077-1.282 1.993-2.069 2.747-.377.361-.754.648-1.131.862-.377.213-.738.32-1.083.32zm18.071 4.871c1.94 1.783 4.494 2.33 7.662 1.64 2.586-.568 4.563-1.798 5.932-3.69l2.311 3.198h5.302V6.511h-9.601v12.727c0 .317-.022.607-.065.87-.14.852-.641 1.279-1.503 1.279-1.714 0-2.57-1.793-2.57-5.38V6.511h-9.666V20.42c0 2.209.732 3.986 2.198 5.33zm33.758 1.788c2.29 0 4.459-.705 6.506-2.116v-4.165c-1.681 0-2.864-.348-3.548-1.042-.684-.694-1.026-1.812-1.026-3.354v-5.15H180V6.511h-4.574V0l-9.666 1v5.511h-1.843v5.2h1.843v8.528c0 2.23.716 4.004 2.15 5.322 1.433 1.317 3.294 1.976 5.584 1.976z"/>
</svg>
