<svg xmlns="http://www.w3.org/2000/svg" width="32" height="31" viewBox="0 0 32 31">
    <path fill="#FFF" d="M29.44 18.812c-.278-.09-.58-.066-.841.067-.26.133-.458.365-.547.644-1.885 5.835-7.53 9.614-13.644 9.133C8.295 28.174 3.311 23.559 2.363 17.5c-.949-6.059 2.386-11.976 8.06-14.303s12.204-.454 15.782 4.527h-4.136c-.61 0-1.103.494-1.103 1.104 0 .609.494 1.103 1.103 1.103h6.62c.54 0 1-.39 1.089-.922l1.103-6.621c.09-.596-.316-1.152-.91-1.251-.594-.1-1.157.297-1.266.889l-.73 4.382c-4.186-5.795-11.8-7.96-18.407-5.236C2.96 3.896-.916 10.798.198 17.858 1.31 24.918 7.124 30.292 14.25 30.85c7.125.558 13.703-3.846 15.9-10.648.09-.278.067-.58-.066-.841-.134-.26-.365-.458-.643-.548z"/>
</svg>
